<svg xmlns="http://www.w3.org/2000/svg" viewBox="-0.5 -0.5 16 16" fill="#000000" id="Quotes-Bold--Streamline-Phosphor.svg" height="16" width="16"><desc>Quotes Bold Streamline Icon: https://streamlinehq.com</desc><path d="M5.594443359375 2.055556640625H1.511109375C0.759392578125 2.055556640625 0.15 2.6649433593749996 0.15 3.416666015625v4.3555546875c0 0.75174609375 0.609369140625 1.36114453125 1.361109375 1.3611152343750001h3.8111132812500004v0.272220703125c0 1.052408203125 -0.8531484375 1.9055566406250002 -1.9055566406250002 1.9055566406250002 -0.628669921875 0 -1.021587890625 0.6805546875 -0.7072558593749999 1.22499609375 0.14588671874999998 0.2526796875 0.41548828125000004 0.40833398437499996 0.7072558593749999 0.40833398437499996 1.9535390625000002 -0.00225 3.53663671875 -1.58534765625 3.538892578125 -3.5388867187499997V3.416666015625c0 -0.75174609375 -0.609369140625 -1.36114453125 -1.3611152343750001 -1.361109375ZM5.32222265625 7.5h-3.5388867187499997V3.68888671875h3.5388867187499997Zm8.16666796875 -5.444443359375h-4.083333984375c-0.75174609375 -0.00003515625 -1.361109375 0.60936328125 -1.361109375 1.361109375v4.3555546875c0 0.75174609375 0.60936328125 1.36114453125 1.361109375 1.3611152343750001h3.811107421875v0.272220703125c0 1.052408203125 -0.8531425781249999 1.9055566406250002 -1.90555078125 1.9055566406250002 -0.628669921875 0 -1.0215937499999999 0.6805546875 -0.7072558593749999 1.22499609375 0.145880859375 0.2526796875 0.41548828125000004 0.40833398437499996 0.7072558593749999 0.40833398437499996 1.9535390625000002 -0.00225 3.53663671875 -1.58534765625 3.5388867187499997 -3.5388867187499997V3.416666015625c0 -0.75174609375 -0.609369140625 -1.36114453125 -1.361109375 -1.361109375ZM13.2166640625 7.5h-3.5388867187499997V3.68888671875h3.5388867187499997Z" stroke-width="1"></path></svg>